<?xml version="1.0" encoding="UTF-8"?><svg id="Layer_2" xmlns="http://www.w3.org/2000/svg" viewBox="0 0 330.79 78.33"><defs><style>.cls-1{fill:#251846;}.cls-1,.cls-2,.cls-3{stroke-width:0px;}.cls-2{fill:#bebfbd;}.cls-3{fill:#901588;}</style></defs><g id="Logo_Artwork"><g id="Leidos-logo-horz-full-rgb"><path class="cls-1" d="m107.16,17.57l12.87-2.97v62.7h-12.87V17.57Zm59.97,52.53c-4.12,5.23-10.9,8.24-17.6,8.24-12.88,0-23.18-8.59-23.18-21.89s10.3-21.88,23.18-21.88c12.02,0,19.58,8.58,19.58,21.88v4.03h-29.88c1.04,4.9,4.73,8.07,9.7,8.07,4.2,0,7.04-2.14,9.18-5.06l9.01,6.61Zm-10.9-18.37c.09-4.29-3.26-7.9-7.9-7.9-5.65,0-8.75,3.87-9.09,7.9h16.99Zm84.28,25.57h-11.84v-5.49h-.17c-1.98,3.01-6.96,6.53-12.8,6.53-12.36,0-20.51-8.93-20.51-21.55,0-11.58,7.21-22.23,19.06-22.23,5.31,0,10.29,1.46,13.21,5.49h.17v-22.48l12.88-2.97v62.7Zm-22.14-31.42c-6.44,0-10.3,4.3-10.3,10.56s3.86,10.56,10.3,10.56,10.3-4.29,10.3-10.56-3.87-10.56-10.3-10.56Zm50.71-11.32c12.87,0,23.17,8.58,23.17,21.88s-10.3,21.89-23.17,21.89-23.18-8.59-23.18-21.89,10.3-21.88,23.18-21.88Zm0,32.44c6.43,0,10.3-4.29,10.3-10.56s-3.87-10.56-10.3-10.56-10.31,4.3-10.31,10.56,3.87,10.56,10.31,10.56Zm52.18-19.13c-1.89-2.33-4.37-3.52-7.46-3.52-2.15,0-4.72.95-4.72,3.43,0,6.18,21.71.94,21.71,16.82,0,10.64-10.29,13.74-19.23,13.74-5.83,0-12.26-1.45-16.39-5.67l7.82-8.67c2.4,2.92,5.24,4.55,9.09,4.55,2.92,0,5.84-.77,5.84-3,0-6.7-21.71-1.03-21.71-16.92,0-9.78,8.75-14.08,17.51-14.08,5.49,0,11.58,1.37,15.46,5.49l-7.91,7.81Zm-145.2-12.28h12.88v41.71h-12.88v-41.71Zm12.88-17.95h-12.88v10.67h12.88v-10.67Z"/><path class="cls-2" d="m44.7,46.96l-14.3-10.05L96.08,15.58l-51.38,31.39ZM0,15.56l13.75,9.66,3.22-9.65H0Z"/><path class="cls-1" d="m22.14,0l-5.17,15.56h79.12S22.14,0,22.14,0ZM7.36,44.4l23.05-7.49-16.66-11.7-6.38,19.18Z"/><polygon class="cls-3" points="16.96 15.56 13.75 25.22 30.41 36.91 96.08 15.58 16.96 15.56"/></g></g></svg>