<?xml version="1.0" encoding="utf-8"?>
<!-- Generator: Adobe Illustrator 19.2.1, SVG Export Plug-In . SVG Version: 6.00 Build 0)  -->
<svg version="1.1" id="layer" xmlns="http://www.w3.org/2000/svg" xmlns:xlink="http://www.w3.org/1999/xlink" x="0px" y="0px"
	 viewBox="0 0 652 652" style="enable-background:new 0 0 652 652;" xml:space="preserve">
<style type="text/css">
	.st0{fill:#FF671B;}
</style>
<path class="st0" d="M699.1,71.9c1.1,0,2.1,0,3.2-0.1v82.5c-1,0-2,0.1-3,0.1c-43.8,0-87.6,0-131.4,0h-1.9v208.1h-93v-208h-95.4
	c-2.1,4.7-4.2,9.4-6.1,14.1c-5.1,12.2-10.2,24.5-15.2,36.8c-5,12.2-9.8,24.5-14.7,36.7c-4.4,11-8.6,22.1-13,33.1
	c-5.8,14.4-11.6,28.9-17.5,43.2c-5.8,14-11.7,27.9-17.5,41.9c-0.7,1.6-1.5,2.2-3.3,2.2c-10.3,0-20.6,0.1-30.9,0.1
	c-6.7,0-13.3-0.1-20-0.1c-1.5,0-2.2-0.2-2.8-1.9c-5-13.3-10.3-26.5-15.4-39.8c-5-13-9.9-26-14.8-39c-4.1-10.9-8.1-21.8-12.2-32.7
	c-4.7-12.3-9.5-24.6-14.3-36.9c-1-2.7-2-5.3-3.3-8.1c-4.4,10.3-8.3,20.9-12.2,31.3c-4,10.6-8,21.1-12,31.7
	c-4,10.6-7.9,21.2-11.9,31.8c-4,10.6-8,21.2-11.9,31.7c-4,10.6-7.9,21.2-11.8,31.7H62.5c-2.4-6.2-4.9-12.4-7.3-18.6
	c-2.8-7.3-5.6-14.7-8.4-22c-4.1-10.8-8.3-21.6-12.5-32.3c-3.8-9.9-7.7-19.8-11.6-29.7c-4.1-10.5-8.1-21.1-12.1-31.6
	c-4.1-10.6-8.1-21.1-12.2-31.6c-3.9-10.1-7.8-20.2-11.6-30.2c-4.4-11.5-8.9-22.9-13.3-34.3c-4.5-11.6-8.9-23.3-13.4-34.9
	c-3.1-7.9-6.2-15.9-9.2-23.8c-0.3-0.8-0.4-1.7-0.6-2.6h82.5c0.2,0.7,0.5,1.4,0.8,2.1c5.9,13,11.7,26,17.6,38.9
	c6,13.3,12.1,26.6,18.1,40c5.5,12.2,11,24.5,16.5,36.7c1,2.1,2,4.2,3.1,6.5c0.4-0.6,0.5-0.9,0.7-1.2c1.9-4.6,3.7-9.3,5.6-13.9
	c6-14.3,12.1-28.6,18.2-42.9c3.7-8.7,7.4-17.5,11.1-26.2c3.5-8.3,7.1-16.5,10.7-24.8c2.2-5.1,4.5-10.2,6.8-15.2h74.1
	c1.9,4.5,3.9,9,5.9,13.5c3.8,8.8,7.7,17.5,11.5,26.3c4.1,9.3,8.2,18.6,12.3,27.8c4.4,10,8.9,20,13.3,30.1c2.9,6.5,5.7,13.1,8.5,19.6
	c1.4,3.1,2.7,6.2,4.4,9.8c18.2-42.4,36.1-84.2,54-126.1h2.6C452.2,71.9,575.6,71.9,699.1,71.9 M693.3,386.1
	c-249.4,0-498.8,0-748.2,0c-0.9,0-1.8,0-2.7,0.1v80c1.1,0,2.1,0,3.2,0c250.5,0,501.1,0,751.6,0h2.6c0.7-3.3,0.5-78.1-0.2-80H693.3z
	 M24.5,545.2c-0.2,0-0.3-0.1-0.5-0.1c-5.5-16.7-11.1-33.4-16.7-50.1h-9.5c-5.4,16.7-10.7,33.5-16.1,50.2c-0.2,0-0.3-0.1-0.5-0.1
	c-5.4-16.4-10.8-32.8-16.3-49.1h-16.7c0.2,1,0.3,1.8,0.6,2.5c2.8,8,5.7,16.1,8.5,24.1c3.5,10.1,7,20.1,10.5,30.2
	c2.1,6,4.2,12,6.3,18.1h11.9c1.8-5.5,3.5-10.9,5.2-16.4c1.9-5.8,3.7-11.5,5.6-17.3c1.5-4.6,2.9-9.1,4.6-14.3
	c1.6,4.5,2.9,8.4,4.3,12.3c1.8,5.3,3.6,10.7,5.4,16c2.1,6.2,4.3,12.4,6.4,18.6c0.1,0.3,0.1,0.6,0.1,1h12.4c0.3-1.1,0.5-2.2,0.9-3.3
	c4.1-11.1,8.3-22.1,12.4-33.1c3.8-10.4,7.6-20.7,11.5-31.1c0.9-2.4,1.7-4.7,2.6-7.3H40.4C35,512.5,30,528.9,24.5,545.2 M336.9,537
	c0.1,0.1,0.2,0.2,0.2,0.3c0.3,9.5-2,18.1-8.6,25.1c-4.2,4.5-9.6,6.9-15.7,8c-0.6,0.1-1.3,0.3-1.9,0.4h-10.9c-2.5-0.8-5-1.5-7.4-2.4
	c-8.4-3.5-14.1-9.6-17.2-18.1c-4.9-13.5-0.5-28.7,10.6-37.1c4.8-3.6,10.2-5.7,16.1-6.3c8.7-1,17,0.5,24.3,5.8c3,2.2,5.3,4.8,7.4,8.6
	c-3.9,1.9-7.7,3.8-11.4,5.6c-1.5-1.8-2.8-3.6-4.4-5.1c-6.9-6.6-19-5.8-25,1.7c-5.3,6.5-6.8,14-4.7,22c1.8,6.8,5.9,12.1,13,14.1
	c7.9,2.2,16.2-0.6,19.8-8.9c0.5-1.2,0.6-2.5,1-4.1H308V537H336.9 M478.8,508.4c0.1,0.6,0.2,1.2,0.2,1.8c0,11.9,0.1,23.9,0,35.8
	c0,5.8-1.3,11.4-4.8,16.2c-3,4.1-6.9,6.6-11.8,7.7c-0.7,0.2-1.4,0.6-2.1,0.9h-11.9c-2-0.6-4-1-5.9-1.7c-6.8-2.4-11-7.2-12.8-14
	c-0.8-2.9-1.3-6-1.4-9c-0.2-12.2-0.1-24.4-0.1-36.5c0-0.3,0.1-0.6,0.1-1.2h13c0,0.9,0.1,1.9,0.1,2.9c0,10.1-0.1,20.2,0,30.4
	c0,3.4,0.2,6.8,1,10c1.7,6.9,6.3,9.6,13.6,8.5c4.3-0.6,7.1-3.3,8.1-7.5c0.7-3.1,1.2-6.3,1.2-9.5c0.2-10.8,0.1-21.6,0.1-32.3v-2.6
	H478.8 M253.8,508.4h13.5v62.2c-3.1,0-6.1,0.1-9.1-0.1c-0.7,0-1.5-1-2-1.7c-6.2-7.4-12.4-14.8-18.6-22.1
	c-4.7-5.6-9.4-11.1-14.1-16.7c-0.3-0.4-0.6-0.9-0.9-1.4c-0.3,0.1-0.5,0.3-0.8,0.4v40.2h-13.4v-62.6c3,0,6-0.1,9,0.1
	c0.6,0,1.3,0.7,1.7,1.2c5.7,6.8,11.4,13.5,17,20.3c5.4,6.4,10.9,12.9,16.3,19.3c0.3,0.4,0.5,0.8,0.7,1.2c0.2-0.1,0.5-0.3,0.7-0.4
	V508.4z M584.5,508.5h13.2v62c-3.1,0-6.1,0-9.1,0c-0.4,0-0.9-0.6-1.3-1c-7.2-8.5-14.4-17-21.5-25.5c-3.9-4.6-7.8-9.2-11.7-13.9
	c-0.5-0.5-0.9-1.1-1.8-2.1v41.2h-13.3v-62.5c3,0,6.1-0.1,9.1,0.1c0.5,0,1.1,0.7,1.5,1.2c10.8,12.9,21.6,25.8,32.5,38.7
	c0.6,0.7,1.2,1.5,1.8,2.3c0.2-0.1,0.5-0.3,0.7-0.4V508.5z M98.5,508.4h13.1v60.9H98.6v-26.9H73.9v26.9H60.7v-60.9h13v23.8h24.7
	V508.4z M680,543.4c5.3-1.2,8.9-4.4,11.1-9.2c1.5-3.2,1.5-6.5,1.4-9.9c-0.1-3.1-1.2-5.9-3-8.4c-3.4-4.6-8.4-6.7-13.8-7.1
	c-7.6-0.5-15.3-0.4-22.9-0.5c-0.3,0-0.6,0.1-1,0.2v60.8h13.4v-24c0.7,0.8,1.1,1.2,1.3,1.6c4.7,7,9.4,14,14.1,21
	c0.8,1.2,1.6,1.7,3,1.6c2.3-0.1,4.6,0,6.9,0c2.3,0,4.7,0,7.5,0c-6.5-8.8-12.7-17.1-19-25.5C679.5,543.6,679.7,543.4,680,543.4
	 M670.1,536.2c-1.6,0.2-3.3,0-5.1,0v-17.9c3.9-0.3,7.5-0.4,10.9,1.8c1.4,0.9,2.4,2.2,2.8,3.9C680.2,531.1,677.3,535.3,670.1,536.2
	 M519.2,542.6c9.7-4.1,12.6-16.5,7.7-25.3c-3.2-5.7-8.7-8-14.7-8.5c-7.5-0.6-15.1-0.4-22.7-0.5c-0.4,0-0.8,0.2-1.1,0.3v60.7h13.2
	v-23.7c0.2,0,0.3-0.1,0.5-0.1c4.2,6.3,8.4,12.6,12.7,18.9c1.1,1.6,1.9,3.8,3.5,4.6c1.7,0.9,4,0.4,6,0.5c3.3,0,6.5,0,10.3,0
	c-6.5-8.8-12.8-17.1-19.1-25.6C516.9,543.4,518.1,543.1,519.2,542.6 M510.9,535.2c-2.9,1.1-5.9,1.3-9.1,0.9v-18
	c3.9,0,7.7-0.2,11.1,2.1c0.9,0.7,1.8,1.8,2.2,2.8C516.7,528.5,515.4,533.4,510.9,535.2 M374.9,496.1h48.7v12.5h-16.2v60.7h-16.3
	v-60.6h-16.3V496.1z M607.6,508.4h35.2v10.3H621c-0.1,4.6-0.1,8.8,0,13.3c7,0.5,13.9,0.1,20.9,0.2v10.5h-20.8v16.3h21.7v10.3h-35.2
	V508.4z M139.7,508.4h40.7v10.2h-13.7v50.6h-13.4v-50.5h-13.6V508.4z M121.5,508.4h13.4v60.8h-13.4V508.4z M185.4,508.4h13.1v60.9
	h-13.1V508.4z M343.8,532.7h26.3v11h-26.3V532.7z"/>
</svg>
